<svg xmlns="http://www.w3.org/2000/svg" height="610" width="612"><path fill="#FFCD05" d="M0 0h300v610H0z"/><path d="M119.9 572.2H29L15.8 532h53.1l.3-147h50.7v187.2zM144.8 532h81l.3-34.2h-69.3c-14.8 0-23.7-6.3-26.7-18.9 0 0 .013-72.316 0-72.3 0-7.175 4.6-13.4 9-16.8 4.4-3.4 10.3-5.1 17.7-5.1h122.4s-14.517 40.58-14.4 40.5v.104l-81-.104v33.3l69-.3c7.4 0 13.3 1.7 17.7 5.1 4.4 3.4 7.4 9 9 16.8.167 1.164.23 1.461.3 2.6v69.9c-1.223 12.923-11.9 19.592-26.7 20.4h-123zM480.5 297.695l.8 29.82-45.1 24.716v214.64L539 482.417l13.7-233.253-72.2 48.532zM299.2 610l84.8-.3-32.4-83.555-52.5-.3M299.2 516.439l56.8-.1 34.6 89.558 39.7-35.223-1.7-213.34-74.2-34.122-1.8 145.695-53.3-.3M299.2 461.603l46.7-.2V318.009l20.2-129.085-67 43.028m.1-10.407l181.4-120.379 9.2-59.539-13-5.703-5.3-2.602-5.3-2.502-5.2-2.401-5.3-2.302-5.2-2.201-5.2-2.002-5.3-2-5.2-1.902-5.3-1.701-5.2-1.701-5.1-1.501-5.2-1.401-5.2-1.401-5.1-1.201-4.9-1.3-5.5-1.102-5.5-1.1-5.8-.9-5.8-.801-6-.801-3-.4-3-.3-6.3-.6-6.3-.501-5.3-.4-2.7-.1-2.7-.1-2.8-.1-2.8-.1-5.9-.1-3-.1-3.1-.1-3.1-.1H317L313.8 0H299.3M540.8 115.476l-1.9 12.208L415 211.739l.8-11.408 125-84.855zm-8.5 53.135l-1.7 10.807-119 80.853.7-10.107 120-81.553zM612 34.122l-113.4 8.406-14.2 63.542-111.7 76.85-18.4 128.884 127.5-20.913L569 228.15l43-194.028z"/></svg>